<svg width="36" height="38" viewBox="0 0 36 38" fill="none" xmlns="http://www.w3.org/2000/svg">
<path d="M3 6.5V31.5C3 33.5 9.5 37 18 37C26.5 37 33 35 33 31.5V6.5" stroke="#DEDEDE" stroke-width="2"/>
<path d="M18 1C9.71573 1 3 3.46243 3 6.5C3 8.5 9.5 12 18 12C26.5 12 33 10 33 6.5C33 3.46243 26.2843 1 18 1Z" stroke="#DEDEDE" stroke-width="2"/>
<path d="M8 10.5V18C8 21 12 23 12 20V16.5C12 14.5 15 15 15 17V26C15 30 22 30 22 25V17C22 14 25 13 25 16V20C25 23 30 22 30 18V10" stroke="#DEDEDE" stroke-width="2"/>
</svg>
