<svg width="36" height="36" viewBox="0 0 36 36" fill="none" xmlns="http://www.w3.org/2000/svg">
<path d="M4 5.5C4 5.13833 4.19664 4.66711 4.8338 4.11475C5.46832 3.5647 6.4446 3.02391 7.73765 2.54979C10.3158 1.60448 13.9439 1 18 1C22.0561 1 25.6842 1.60448 28.2623 2.54979C29.5554 3.02391 30.5317 3.5647 31.1662 4.11475C31.8034 4.66711 32 5.13833 32 5.5V30.5C32 30.8617 31.8034 31.3329 31.1662 31.8852C30.5317 32.4353 29.5554 32.9761 28.2623 33.4502C25.6842 34.3955 22.0561 35 18 35C13.9439 35 10.3158 34.3955 7.73765 33.4502C6.4446 32.9761 5.46832 32.4353 4.8338 31.8852C4.19664 31.3329 4 30.8617 4 30.5V5.5Z" stroke="#DEDEDE" stroke-width="2"/>
</svg>
